<svg xmlns="http://www.w3.org/2000/svg" xmlns:xlink="http://www.w3.org/1999/xlink" height="690" width="690"><use xlink:href="#0" transform="matrix(.70711-.70711.70711.70711-143.45 346.06)" width="690" height="690"/><use xlink:href="#1" id="0" transform="matrix(.70711-.70711.70711.70711-143.45 346.06)" width="690" height="690"/><use xlink:href="#2" id="1" transform="matrix(.70711-.70711.70711.70711-143.45 346.06)" width="690" height="690"/><g id="2" transform="translate(0-.078)"><g transform="translate(1.585)" id="6" fill-rule="evenodd" stroke="#000" stroke-width="2.245"><path d="m316.98 208.52c.631-11.241 12.05-16.567 12.765-49.796l14.679-.751v117.79l-14.04.14c.252-21.924-3.12-45.45-13.399-67.38z" fill="#fc0"/><path d="m371.86 208.52c-.631-11.241-12.05-16.567-12.765-49.796l-14.679-.751v117.79l14.04.14c-.252-21.924 3.12-45.45 13.399-67.38z" fill="#d4aa00"/><path d="m344.42 193.25c-5.519 12.531-14.314 13.315-26.77 13.553 12.511.903 22.339 5.246 26.77 13.473 4.431-8.227 14.26-12.57 26.771-13.473-12.456-.237-21.252-1.021-26.771-13.553z" fill="#fc0" stroke-linejoin="round" stroke-linecap="round"/></g><use height="690" width="690" transform="matrix(-1 0 0-1 692.01 692.52)" xlink:href="#6"/></g><g fill-rule="evenodd" stroke="#000"><g transform="scale(1-1)"><circle cx="346.01" cy="-346.18" r="74.976" fill="#fc0" stroke-width="2.048"/><ellipse cx="346.01" cy="-346.18" rx="55.33" ry="55.33" fill="#d4aa00" stroke-width="2"/></g><path d="m345.97 102.64c-134.44 0-243.51 109.07-243.51 243.51 0 134.44 109.07 243.58 243.51 243.58 134.44 0 243.58-109.14 243.58-243.58 0-134.44-109.14-243.51-243.58-243.51zm0 57.11c102.98 0 186.61 83.56 186.61 186.54 0 102.98-83.63 186.61-186.61 186.61-102.98 0-186.54-83.63-186.54-186.61 0-102.98 83.56-186.54 186.54-186.54z" fill="#fc0" stroke-width="2.245"/><ellipse cx="346.01" cy="346.18" rx="201.31" ry="201.31" fill="none" stroke-width="2"/><g transform="translate(.064-.033)"><ellipse transform="matrix(1.51045 0 0-1.44751 581.54 614.29)" cx="-155.96" cy="185.2" rx="24.91" ry="25.993" fill="#ffe680" stroke-width="1.86"/><g fill-opacity=".75" stroke-width="2.245"><path d="m354.92 357.91c-.208-7.07-6.236-9.923-9.364-10.931-.016.156-.043.301-.057.459-28.47 18.727-28.99-25.955-4.128-38.736-18.784 2.269-33.366 18.273-33.366 37.666 0 6.997 1.909 13.558 5.217 19.19 16.861 16.812 38.08 13.01 41.43-4.414.223-1.159.297-2.241.268-3.23z" fill="#fea"/><path d="m383.78 346.37c0-20.946-17.01-37.952-37.952-37.952-1.554 0-3.081.105-4.586.287-24.863 12.78-24.342 57.46 4.128 38.736 3.356-37.28 47.769-11.3 31.818 20.295 4.158-6.087 6.593-13.442 6.593-21.365z" fill="#fd5"/></g></g></g><g id="3" transform="translate(0-.529)"><g transform="translate(1.567-.021)" id="7" fill-rule="evenodd" stroke="#000"><ellipse ry="8.464" rx="9.268" cy="38.985" cx="142.55" transform="matrix(2.13474 0 0 3.16376 40.14-86.966)" fill="#d4aa00" stroke-width=".936"/><g stroke-linejoin="round"><path d="m361.85 23.562c-3.343-8.386-9.911-14.06-17.44-14.06-7.529 0-14.03 5.672-17.375 14.06 9.75 1.658 17.309 12.88 17.375 26.521.065-13.672 7.659-24.903 17.44-26.521z" fill="#fc0" stroke-width="2.275"/><g transform="translate(.041)" stroke-width="2.139"><path d="m344.4 54.881l-13.398.752c-.621 31.847-10.137 38.09-11.447 48.44l24.846-1.412z" fill="#fc0"/><path d="m344.4 54.881l13.398.752c.621 31.847 10.137 38.09 11.447 48.44l-24.846-1.412z" fill="#d4aa00"/></g><path d="m344.44 90.29c-7.327 15.09-13.584 11.674-24.637 13.422 10.279.955 18.984 4.079 24.637 13.424 5.653-9.345 14.356-12.469 24.635-13.424-11.05-1.748-17.307 1.67-24.635-13.422z" fill="#fc0" stroke-linecap="round" stroke-width="2.139"/></g></g><use height="690" width="690" transform="matrix(-1 0 0-1 692.01 693.43)" xlink:href="#7"/></g><use xlink:href="#3" id="4" transform="matrix(.70711-.70711.70711.70711-143.45 346.06)" width="690" height="690"/><use xlink:href="#4" id="5" transform="matrix(.70711-.70711.70711.70711-143.45 346.06)" width="690" height="690"/><use xlink:href="#5" transform="matrix(.70711-.70711.70711.70711-143.45 346.06)" width="690" height="690"/></svg>